<?xml version="1.0" encoding="UTF-8"?>
<svg fill="none" viewBox="0 0 120 120" xmlns="http://www.w3.org/2000/svg">
<g clip-path="url(#a)">
<path d="m120 60c0-33.132-26.868-60-60-60s-60 26.868-60 60 26.868 60 60 60 60-26.868 60-60z" fill="#32BEA6"/>
<path d="m69.408 68.222h-18.815c2.9263 8.8513 0.2419 12.89 0.2419 12.89l6.5054 1.4752h5.3204l6.5055-1.4752s-2.6844-4.0387 0.2418-12.89z" fill="#E2A379"/>
<path d="m60.024 94.341c10.859 0 9.1415-13.228 9.1415-13.228s-2.1524 4.1838-9.214 4.1838c-7.0617 0-9.0689-4.1838-9.0689-4.1838s-1.7171 13.228 9.1414 13.228z" fill="#E2A379"/>
<path d="m59.928 80.629c-18.67 0-33.64 5.3446-35.405 11.923-0.7981 2.9504-1.6929 8.5126-2.4426 13.906 10.326 8.44 23.555 13.519 37.944 13.519s27.594-5.079 37.944-13.519c-0.7739-5.393-1.6687-10.979-2.4426-13.906-1.8138-6.578-16.953-11.923-35.598-11.923z" fill="#E2A379"/>
<path d="m59.928 80.629c-18.67 0-33.64 5.3446-35.405 11.923-0.7981 2.9504-1.6929 8.5126-2.4426 13.906 10.326 8.44 23.555 13.519 37.944 13.519s27.594-5.079 37.944-13.519c-0.7739-5.393-1.6687-10.979-2.4426-13.906-1.8138-6.578-16.953-11.923-35.598-11.923z" fill="#E9F2F4"/>
<path d="m59.903 80.629h-1.0399-0.266-0.7739-0.1693c-4.7642 0.0725-9.1657 0.4353-12.793 0.9915 0 0 0.9673 9.1657 0.9673 14.172l14.148 16.687 14.099-16.663c0-10.302-0.0242-14.244-0.0242-14.244-4.0387-0.6046-8.682-0.9432-14.148-0.9432z" fill="#78DDF4"/>
<path d="m69.408 68.222h-18.815c2.9263 8.8513 0.2419 12.89 0.2419 12.89l6.5054 1.4752h5.3204l6.5055-1.4752s-2.6844-4.0387 0.2418-12.89z" fill="#E2A379"/>
<path d="m60 82.273-3.7969 1.1366s1.306 6.1911 3.7969 6.1911 3.7968-6.1911 3.7968-6.1911l-3.7968-1.1366z" fill="#9B1818"/>
<path d="m60 113.4s3.8936-7.11 5.7315-11.076l-4.7642-15.889h-1.9589l-4.7158 15.816c1.838 3.99 5.7074 11.149 5.7074 11.149z" fill="#9B1818"/>
<path d="m74.123 81.403-4.4982-3.9178-9.6251 4.7884s14.051 7.9323 14.123 7.8839v-8.7545z" fill="#4ECFF2"/>
<path d="m86.578 85.03-15.647-6.457-10.931 34.873 19.806-23.216-2.6602-2.6602h3.9903l5.4414-2.5393z" fill="#C9DEE2"/>
<path d="m45.877 81.403 4.4982-3.9178 9.6252 4.8126s-14.051 7.9322-14.099 7.8839v-8.7787h-0.0242z" fill="#4ECFF2"/>
<path d="m33.398 85.03 15.72-6.457 10.883 34.873-19.831-23.216 2.6602-2.6602h-3.9903l-5.4414-2.5393z" fill="#C9DEE2"/>
<path d="m51.947 75.453c-8.4402 2.0799-14.462 7.3036-14.462 13.398v20.629h1.2092v-20.629c0-5.4898 5.4897-10.206 13.228-12.164 0.0484-0.3869 0.0484-0.798 0.0242-1.2334z" fill="#3F3F3F"/>
<path d="m68.053 75.453c0 0.4354 0 0.8465 0.0241 1.2334 7.763 1.9589 13.229 6.6747 13.229 12.164v3.7968h1.2092v-3.7726c0-6.1185-6.0218-11.342-14.462-13.422z" fill="#3F3F3F"/>
<path d="m38.114 111.42c2.2306 0 4.0387-1.808 4.0387-4.039 0-2.23-1.8081-4.039-4.0387-4.039-2.2305 0-4.0386 1.809-4.0386 4.039 0 2.231 1.8081 4.039 4.0386 4.039z" fill="#5E5E5E"/>
<path d="m38.114 110.91c1.95 0 3.5308-1.581 3.5308-3.531s-1.5808-3.531-3.5308-3.531c-1.9501 0-3.5309 1.581-3.5309 3.531s1.5808 3.531 3.5309 3.531z" fill="#828282"/>
<path d="m38.114 109.87c1.3757 0 2.4909-1.115 2.4909-2.491s-1.1152-2.491-2.4909-2.491-2.491 1.115-2.491 2.491 1.1153 2.491 2.491 2.491z" fill="#5E5E5E"/>
<path d="m38.114 109.17c0.9884 0 1.7896-0.802 1.7896-1.79s-0.8012-1.79-1.7896-1.79c-0.9883 0-1.7896 0.802-1.7896 1.79s0.8013 1.79 1.7896 1.79z" fill="#828282"/>
<path d="m84.498 111.08c-1.4027 0-3.2648-0.024-4.861-0.87-2.0072-1.065-3.0471-3.169-3.0471-6.216v-5.2234h0.9673v5.2234c0 2.709 0.8223 4.474 2.5152 5.369 1.451 0.774 3.2406 0.774 4.5707 0.774h0.1451v0.967h-0.1451c-0.0484-0.024-0.0967-0.024-0.1451-0.024z" fill="#69696B"/>
<path d="m85.828 110.59c0 0.556-0.4595 1.015-1.0157 1.015s-1.0157-0.459-1.0157-1.015c0-0.557 0.4595-1.016 1.0157-1.016 0.532-0.024 1.0157 0.435 1.0157 1.016z" fill="#69696B"/>
<path d="m79.274 111.05h-0.1451-0.1451v-0.967h0.1451c1.3059 0 3.1197 0 4.5708-0.774 1.6928-0.895 2.5151-2.66 2.5151-5.369v-5.2237h0.9673v5.2237c0 3.071-1.0157 5.151-3.0471 6.215-1.5962 0.871-3.4583 0.895-4.861 0.895z" fill="#8D8D8E"/>
<path d="m77.969 110.57c0 0.557 0.4595 1.016 1.0157 1.016s1.0157-0.459 1.0157-1.016c0-0.556-0.4595-1.015-1.0157-1.015-0.5562-0.025-1.0157 0.435-1.0157 1.015z" fill="#8D8D8E"/>
<path d="m86.699 99.347c-0.3386 0-0.6046-0.266-0.6046-0.6046v-1.5961c0-2.3216-1.8863-4.208-4.208-4.208-2.3216 0-4.2079 1.8864-4.2079 4.208v1.5961c0 0.3386-0.2661 0.6046-0.6046 0.6046-0.3386 0-0.6046-0.266-0.6046-0.6046v-1.5961c0-2.9746 2.4184-5.4172 5.4171-5.4172 2.9988 0 5.4172 2.4184 5.4172 5.4172v1.5961c0 0.3144-0.266 0.6046-0.6046 0.6046z" fill="#3F3F3F"/>
<path d="m79.299 42.37c0-22.346-8.6336-27.473-19.299-27.473-10.641 0-19.299 5.127-19.299 27.473 0 7.5695 1.3542 13.495 3.3857 18.065 4.4498 10.06 12.164 13.567 15.913 13.567s11.439-3.5066 15.913-13.567c2.0314-4.5707 3.3857-10.496 3.3857-18.065z" fill="#F4B382"/>
<path d="m50.036 41.016c-4.6191 0-8.3917 0.7981-8.3917 6.578 0 3.6518 2.0798 7.2793 8.3917 7.2793 4.6192 0 8.3918-3.6517 8.3918-7.2793s-3.7485-6.578-8.3918-6.578zm0 12.43c-5.006 0-6.6505-2.9021-6.6505-5.7799 0-4.595 2.9746-5.2237 6.6505-5.2237 3.676 0 6.6506 2.3458 6.6506 5.2237 0 2.8778-2.9746 5.7799-6.6506 5.7799z" fill="#261D17"/>
<path d="m50.036 42.443c-3.676 0-6.6506 0.6529-6.6506 5.2237 0 2.8778 1.6445 5.7799 6.6506 5.7799 3.6759 0 6.6505-2.9021 6.6505-5.7799 0-2.8779-2.9746-5.2237-6.6505-5.2237z" fill="#F4C4A4"/>
<path d="m50.036 42.443c-3.676 0-6.6506 0.6529-6.6506 5.2237 0 2.4183 1.1609 4.8367 4.474 5.5622l3.9904-10.592c-0.5804-0.1209-1.185-0.1934-1.8138-0.1934z" fill="#F4CCB0"/>
<path d="m56.687 47.666c0-2.3942-2.0556-4.4015-4.8367-5.0303l-3.9662 10.592c0.6288 0.1451 1.3543 0.2177 2.1766 0.2177 3.6517 0 6.6263-2.9021 6.6263-5.7799z" fill="#F4C4A4"/>
<path d="m42.66 45.635c-0.2176 0-0.4353-0.0967-0.6046-0.266l-3.2164-3.5066c-0.3144-0.3386-0.2902-0.8707 0.0483-1.1609 0.3386-0.3144 0.8707-0.2902 1.1609 0.0484l3.2164 3.5067c0.3144 0.3385 0.2902 0.8706-0.0484 1.1608-0.1451 0.1451-0.3385 0.2176-0.5562 0.2176z" fill="#261D17"/>
<path d="m77.485 45.635c0.2177 0 0.4353-0.0967 0.6046-0.266l3.2164-3.5066c0.3144-0.3386 0.2902-0.8707-0.0483-1.1609-0.3386-0.3144-0.8706-0.2902-1.1608 0.0484l-3.2165 3.5067c-0.3144 0.3385-0.2902 0.8706 0.0484 1.1608 0.1693 0.1451 0.3627 0.2176 0.5562 0.2176z" fill="#261D17"/>
<path d="m61.548 47.594c0 3.6518 3.7485 7.2793 8.3918 7.2793 6.312 0 8.3918-3.6517 8.3918-7.2793 0-5.7799-3.7485-6.578-8.3918-6.578s-8.3918 2.9505-8.3918 6.578zm1.7413 0.0726c0-2.8779 2.9746-5.2237 6.6505-5.2237s6.6506 0.6529 6.6506 5.2237c0 2.8778-1.6445 5.7799-6.6506 5.7799-3.6759 0-6.6505-2.9021-6.6505-5.7799z" fill="#261D17"/>
<path d="m69.94 42.443c3.676 0 6.6506 0.6529 6.6506 5.2237 0 2.8778-1.6445 5.7799-6.6506 5.7799-3.6759 0-6.6505-2.9021-6.6505-5.7799 0-2.8779 2.9746-5.2237 6.6505-5.2237z" fill="#F4C4A4"/>
<path d="m69.94 42.443c-0.6287 0-1.2333 0.0725-1.8137 0.1934-2.7812 0.6288-4.8368 2.6361-4.8368 5.0303s2.0314 4.7884 4.8126 5.5381l3.9903-10.641c-0.6771-0.0968-1.4027-0.1209-2.1524-0.1209z" fill="#F4CCB0"/>
<path d="m72.092 53.228c3.3132-0.7255 4.474-3.1439 4.474-5.5622 0-3.6276-1.8622-4.7884-4.474-5.1028l-3.9903 10.641c0.5804 0.1693 1.185 0.2419 1.8379 0.2419 0.7981 0 1.5236-0.0726 2.1524-0.2177z" fill="#F4C4A4"/>
<path d="m62.95 48.513h-5.2479c-0.0483 0-1.451-2.8779-1.3784-2.8779h7.3035c0.0725 0-0.6288 2.8779-0.6772 2.8779z" fill="#261D17"/>
<path d="m62.491 48.537c-0.7255-0.5079-1.5961-1.0157-2.5393-1.0157-0.7013 0-1.4026 0.3869-1.983 0.6771-0.9432 0.4837-0.9432 3.0714-0.9432 3.0714 0.532-1.1367 1.6929-1.8622 2.9504-1.8622 1.2334 0 2.3942 0.7255 2.9504 1.8622-0.0241 0.0241 0.2661-2.2491-0.4353-2.7328z" fill="#261D17"/>
<path d="m38.863 50.23c1.0399 6.0943 2.3216 6.3603 4.1838 6.0459l-1.9589-13.253c-1.8622 0.3386-3.2649 1.1366-2.2249 7.2068z" fill="#F4B382"/>
<path d="m78.96 43.047-1.9589 13.253c1.838 0.3144 3.1439 0.0242 4.1838-6.046 1.0157-6.0943-0.3869-6.8923-2.2249-7.2067z" fill="#F4B382"/>
<path d="m80 50.81c23.99-23.99-6.1185-35.913-20-35.913s-43.724 12.164-20 35.913l2.2974-9.4075c11.076 0 20.532-6.5055 27.376-12.648 2.9021 8.0291 10.326 22.056 10.326 22.056z" fill="#3A1D12"/>
<path d="m66.457 63.797s-3.4341 2.3216-6.4571 2.3216-6.4571-2.3216-6.4571-2.3216c0-0.3386 2.7328-1.2818 3.8936-1.4511 0.7255-0.1209 2.5635 0.6046 2.5635 0.6046s1.8138-0.7013 2.5151-0.6046c1.185 0.1693 3.942 1.4511 3.942 1.4511z" fill="#CC785E"/>
<path d="m66.457 63.797s-3.4341 3.2649-6.4571 3.2649-6.4571-3.2649-6.4571-3.2649 1.572 0.3628 4.74 0.1693c0.5321-0.0241 1.2334 0.387 1.6929 0.387 0.4111 0 1.0157-0.4353 1.4752-0.4112 3.3374 0.1935 5.0061-0.1451 5.0061-0.1451z" fill="#C16952"/>
</g>
<defs>
<clipPath id="a">
<rect width="120" height="120" fill="#fff"/>
</clipPath>
</defs>
</svg>
