<?xml version="1.0" encoding="UTF-8"?>
<svg fill="none" viewBox="0 0 120 120" xmlns="http://www.w3.org/2000/svg">
<g clip-path="url(#a)">
<path d="m120 60c0-33.132-26.868-60-60-60s-60 26.868-60 60 26.868 60 60 60 60-26.868 60-60z" fill="#EA4949"/>
<path d="m69.408 68.222h-18.815c2.9263 8.8513 0.2419 12.89 0.2419 12.89l6.5054 1.4752h5.3204l6.5055-1.4752s-2.6844-4.0387 0.2418-12.89z" fill="#E2A379"/>
<path d="m60.024 94.341c10.859 0 9.1415-13.228 9.1415-13.228s-2.1524 4.1838-9.214 4.1838c-7.0617 0-9.0689-4.1838-9.0689-4.1838s-1.7171 13.228 9.1414 13.228z" fill="#E2A379"/>
<path d="m59.928 80.629c-18.67 0-33.64 5.3446-35.405 11.923-0.7981 2.9504-1.6929 8.5126-2.4426 13.906 10.326 8.44 23.555 13.519 37.944 13.519s27.594-5.079 37.944-13.519c-0.7739-5.393-1.6687-10.979-2.4426-13.906-1.8138-6.578-16.953-11.923-35.598-11.923z" fill="#E2A379"/>
<path d="m79.516 32.576h-38.815v61.669h38.815v-61.669z" fill="#2B1407"/>
<path d="m70.931 78.573h-21.814v5.006h21.814v-5.006z" fill="#8BACAF"/>
<path d="m59.928 80.629c-18.67 0-33.64 5.3446-35.405 11.923-0.7981 2.9504-1.6929 8.5126-2.4426 13.906 10.326 8.44 23.555 13.519 37.944 13.519s27.594-5.079 37.944-13.519c-0.7739-5.393-1.6687-10.979-2.4426-13.906-1.8138-6.578-16.953-11.923-35.598-11.923z" fill="#E9F2F4"/>
<path d="m59.928 84.74c-3.8211 0-7.497 0.2177-10.931 0.6288-13.325 1.5961 11.004 27.69 11.004 27.69s24.184-26.118 10.762-27.714c-3.4099-0.3869-7.0617-0.6046-10.834-0.6046z" fill="#019897"/>
<path d="m59.928 80.629c-3.8211 0-7.497 0.2176-10.931 0.6287-13.325 1.5962 0.0484 14.752 11.004 14.752 10.955 0 24.184-13.18 10.762-14.776-3.4099-0.387-7.0617-0.6046-10.834-0.6046z" fill="#E2A379"/>
<path d="m49.166 104.86h-15.236v2.539h15.236v-2.539z" fill="#C9DEE2"/>
<path d="m69.408 68.222h-18.815c2.9263 8.8513 0.2419 12.89 0.2419 12.89h18.331s-2.6844-4.0387 0.2418-12.89z" fill="#E2A379"/>
<path d="m86.578 85.03-15.647-6.457-10.931 34.873 19.806-23.216-2.6602-2.6602h3.9903l5.4414-2.5393z" fill="#C9DEE2"/>
<path d="m33.398 85.03 15.72-6.457 10.883 34.873-19.831-23.216 2.6602-2.6602h-3.9903l-5.4414-2.5393z" fill="#C9DEE2"/>
<path d="m79.299 42.37c0-22.346-8.6336-27.473-19.299-27.473-10.641 0-19.299 5.127-19.299 27.473 0 7.5695 1.3543 13.495 3.3857 18.065 4.4498 10.06 12.164 13.567 15.913 13.567s11.439-3.5066 15.913-13.567c2.0314-4.5707 3.3857-10.496 3.3857-18.065z" fill="#F4B382"/>
<path d="m38.863 50.23c1.0399 6.0944 2.3216 6.3604 4.1838 6.046l-1.9589-13.253c-1.8622 0.3385-3.2649 1.1366-2.2249 7.2067z" fill="#F4B382"/>
<path d="m78.96 43.047-1.9589 13.253c1.838 0.3144 3.1439 0.0242 4.1838-6.046 1.0157-6.0943-0.3869-6.8924-2.2249-7.2068z" fill="#F4B382"/>
<path d="m72.044 18.452c-14.438 10.496-28.706 24.74-30.181 38.065-0.5804 5.2721 4.5466 11.246 6.2878 14.22 1.6203 2.7086 3.1923 7.6179 3.821 9.1173 6.3362 15.163-10.568 18.428-10.568 18.428l-0.4595 0.2419s7.2794-2.3942-1.3784-16.348c-1.3543-2.1523-5.5623-7.11-5.1996-13.543 0.3628-6.5296 5.0545-7.6904 4.595-11.85-0.4353-3.9662-5.2963-9.8428-4.8368-14.075 0.9432-8.8513 4.3047-17.92 11.923-25.586l25.998 1.3301z" fill="#47200D"/>
<path d="m60 13.156c-11.778 0-21.354 2.3942-21.354 24.74 0 0 21.33-5.4655 21.33-13.591 0-0.1935 0.0242-11.149 0.0242-11.149z" fill="#47200D"/>
<path d="m53.712 24.837c1.0399 3.7001 5.006 3.7001 8.3434 6.4329 9.0931 7.4002 15.284 17.05 16.203 25.248 0.5804 5.2721-4.5465 11.246-6.2877 14.22-1.6204 2.7086-3.1923 7.6179-3.8211 9.1173-6.3361 15.163 10.52 18.549 10.52 18.549l0.5078 0.0967s-7.2793-2.3942 1.3785-16.348c1.3543-2.1524 5.5623-7.1101 5.1995-13.543-0.3627-6.5296-5.0544-7.6904-4.5949-11.85 0.4353-3.9662 5.2962-9.8428 4.8368-14.075-0.9432-8.8513-3.0956-18.162-10.689-24.861-1.9831-1.7413-4.3531-4.6433-15.308-4.6433 0-0.0242-8.0049 5.5623-6.2878 11.657z" fill="#47200D"/>
<path d="m60 14.293c-19.033 0-19.129 19.371-19.129 19.347l-0.0242 0.0241s0.0242-0.0241 0.0242 0c0 0.0242 6.844-5.8283 19.129-5.8283s19.129 5.8283 19.129 5.8283h0.0242l-0.0242-0.0241c0 0.0241-0.0967-19.347-19.129-19.347z" fill="#E6E7E8"/>
<path d="m60 26.699c3.112 0 5.6348-2.5228 5.6348-5.6348s-2.5228-5.6348-5.6348-5.6348-5.6348 2.5228-5.6348 5.6348 2.5228 5.6348 5.6348 5.6348z" fill="#D61E1E"/>
<path d="m63.894 20.024h-7.763v2.0556h7.763v-2.0556z" fill="#E6E7E8"/>
<path d="m61.016 17.195h-2.0557v7.763h2.0557v-7.763z" fill="#E6E7E8"/>
<path d="m66.457 63.797s-3.4341 2.3216-6.4571 2.3216-6.4571-2.3216-6.4571-2.3216c0-0.3386 2.7328-1.2818 3.8936-1.4511 0.7255-0.1209 2.5635 0.6046 2.5635 0.6046s1.8138-0.7013 2.5151-0.6046c1.185 0.1693 3.942 1.4511 3.942 1.4511z" fill="#B74E39"/>
<path d="m66.457 63.797s-3.4341 3.2649-6.4571 3.2649-6.4571-3.2649-6.4571-3.2649 1.572 0.3628 4.74 0.1693c0.5321-0.0241 1.2334 0.387 1.6929 0.387 0.4111 0 1.0157-0.4353 1.4752-0.4112 3.3374 0.1935 5.0061-0.1451 5.0061-0.1451z" fill="#AA4035"/>
</g>
<defs>
<clipPath id="a">
<rect width="120" height="120" fill="#fff"/>
</clipPath>
</defs>
</svg>
