<?xml version="1.0" encoding="UTF-8"?>
<svg fill="none" viewBox="0 0 120 120" xmlns="http://www.w3.org/2000/svg">
<g clip-path="url(#a)">
<path d="m120 60c0-33.132-26.868-60-60-60s-60 26.868-60 60 26.868 60 60 60 60-26.868 60-60z" fill="#A3D5E0"/>
<path d="m59.928 80.629c-18.67 0-33.64 5.3446-35.405 11.923-0.7981 2.9504-1.6929 8.5126-2.4426 13.906 10.326 8.44 23.555 13.519 37.944 13.519s27.594-5.079 37.944-13.519c-0.7739-5.393-1.6687-10.979-2.4426-13.906-1.8138-6.578-16.953-11.923-35.598-11.923z" fill="#019897"/>
<path d="m48.077 81.378s-4.6433 10.641 11.85 10.641c16.493 0 12.019-10.641 12.019-10.641l-11.947-1.4027-11.923 1.4027z" fill="#D0EAEF"/>
<path d="m69.408 68.222h-18.815c2.9263 8.8513 0.2419 12.89 0.2419 12.89l6.5054 3.1197h5.3204l6.5055-3.1197s-2.6844-4.0387 0.2418-12.89z" fill="#E2A379"/>
<path d="m79.299 42.37c0-22.346-8.6336-27.473-19.299-27.473-10.641 0-19.299 5.127-19.299 27.473 0 7.5695 1.3542 13.495 3.3857 18.065 4.4498 10.06 12.164 13.567 15.913 13.567s11.439-3.5066 15.913-13.567c2.0314-4.5707 3.3857-10.496 3.3857-18.065z" fill="#F4B382"/>
<path d="m60 14.897c-11.778 0-20 6.1911-20 28.537 0 0 20-11.1 20-19.226v-9.3108z" fill="#F2DE7C"/>
<path d="m59.976 14.897c11.778 0 20.024 6.1911 20.024 28.537 0 0-20-11.1-20-19.226l-0.0242-9.3108z" fill="#F2DE7C"/>
<path d="m41.064 19.371c0 1.9347-0.919 17.316-0.919 17.316h39.782s-0.919-15.381-0.919-17.316c0-0.9673-8.0048-5.1995-18.791-5.1995-10.883 0-19.154 4.2322-19.154 5.1995z" fill="#019897"/>
<path d="m50.834 81.112s-3.5792 8.8755 9.0931 8.8755 9.2382-8.8755 9.2382-8.8755l-9.2382-4.4498-9.0931 4.4498z" fill="#E2A379"/>
<path d="m38.863 50.23c1.0399 6.0943 2.3216 6.3603 4.1838 6.0459l-1.9589-13.253c-1.8622 0.3386-3.2649 1.1366-2.2249 7.2068z" fill="#F4B382"/>
<path d="m78.96 43.047-1.9589 13.253c1.838 0.3144 3.1439 0.0242 4.1838-6.046 1.0157-6.0943-0.3869-6.8923-2.2249-7.2067z" fill="#F4B382"/>
<path d="m42.273 44.28c-0.0968-0.6529-0.121-1.2575-0.0968-1.717 0.0242-0.7013 0.1209-1.1367 0.1209-1.1367l-2.2732 0.8465v1.0399s0.2418-0.0726 0.6771-0.2177c-0.0242 0-0.0484 0.0242-0.0725 0.0242 0.3144 0.5321 0.7013 1.3543 1.0882 2.5393-0.0241 0 0.8707 0.653 0.5563-1.3785z" fill="#F2DE7C"/>
<path d="m77.848 42.564c0.0242 0.4837 0 1.0641-0.0967 1.717-0.3144 2.0315 0.5562 1.3785 0.5562 1.3785 0.3628-1.2092 0.7739-2.0072 1.0641-2.5393 0.3869 0.1451 0.6046 0.1935 0.6046 0.1935v-1.0399l-2.2491-0.8465s0.0967 0.4354 0.1209 1.1367z" fill="#F2DE7C"/>
<path d="m75.986 49.649-15.986-2.4667-15.986 2.4667v10.592h0.0242c0.0242 0.0484 0.0242 0.121 0.0484 0.1935 4.4498 10.06 12.164 13.567 15.913 13.567s11.439-3.5066 15.913-13.567c0.0241-0.0725 0.0483-0.1209 0.0483-0.1935h0.0242v-10.592z" fill="#E4F0F2"/>
<path d="m75.284 50.738c-0.0725 0-0.1451-0.0242-0.1934-0.0483-0.2419-0.121-0.3386-0.4112-0.2419-0.653l3.6276-7.8114c0.1209-0.2418 0.4111-0.3386 0.653-0.2418 0.2418 0.1209 0.3385 0.4111 0.2418 0.6529l-3.6276 7.8114c-0.0967 0.1693-0.266 0.2902-0.4595 0.2902z" fill="#E4F0F2"/>
<path d="m44.716 50.738c-0.1934 0-0.3627-0.0967-0.4353-0.2902l-3.6275-7.8114c-0.121-0.2418 0-0.532 0.2418-0.6529s0.532 0 0.653 0.2418l3.6275 7.8114c0.121 0.2418 0 0.532-0.2418 0.6529-0.0967 0.0242-0.1693 0.0484-0.2177 0.0484z" fill="#E4F0F2"/>
</g>
<defs>
<clipPath id="a">
<rect width="120" height="120" fill="#fff"/>
</clipPath>
</defs>
</svg>
