<?xml version="1.0" encoding="UTF-8"?>
<svg fill="none" viewBox="0 0 120 120" xmlns="http://www.w3.org/2000/svg">
<g clip-path="url(#a)">
<path d="m120 60c0-33.132-26.868-60-60-60s-60 26.868-60 60 26.868 60 60 60 60-26.868 60-60z" fill="#E5AA17"/>
<path d="m60 120c16.977 0 32.31-7.062 43.216-18.38-0.677-3.6514-1.354-6.9888-2.007-9.0444-2.0554-6.6022-19.637-11.923-41.306-11.923s-39.057 5.3204-41.112 11.923c-0.6288 2.0556-1.3301 5.3688-2.0072 9.0444 10.907 11.318 26.239 18.38 43.216 18.38z" fill="#E2A379"/>
<path d="m101.21 92.576c-1.6201-5.1754-12.793-9.5768-28.005-11.221l-13.204 22.128-13.228-22.176c-15.236 1.6445-26.384 6.046-28.005 11.246-0.6288 2.0556-1.3302 5.3688-2.0073 9.0446 10.907 11.342 26.239 18.38 43.216 18.38 16.977 0 32.31-7.062 43.216-18.38-0.628-3.6516-1.33-6.989-1.983-9.0204z" fill="#9AE8F4"/>
<path d="m49.166 104.86h-15.236v2.539h15.236v-2.539z" fill="#D2FAFC"/>
<path d="m51.947 75.453c-8.4402 2.0799-14.462 7.3036-14.462 13.398v20.629h1.2092v-20.629c0-5.4898 5.4897-10.206 13.228-12.164 0.0484-0.3869 0.0484-0.798 0.0242-1.2334z" fill="#3F3F3F"/>
<path d="m68.053 75.453c0 0.4354 0 0.8465 0.0242 1.2334 7.763 1.9589 13.228 6.6747 13.228 12.164v3.7968h1.2092v-3.7726c0-6.1185-6.0217-11.342-14.462-13.422z" fill="#3F3F3F"/>
<path d="m38.114 111.42c2.2306 0 4.0387-1.808 4.0387-4.039 0-2.23-1.8081-4.039-4.0387-4.039-2.2305 0-4.0386 1.809-4.0386 4.039 0 2.231 1.8081 4.039 4.0386 4.039z" fill="#5E5E5E"/>
<path d="m38.114 110.91c1.95 0 3.5309-1.581 3.5309-3.531s-1.5809-3.531-3.5309-3.531-3.5308 1.581-3.5308 3.531 1.5808 3.531 3.5308 3.531z" fill="#828282"/>
<path d="m38.114 109.87c1.3757 0 2.4909-1.115 2.4909-2.491s-1.1152-2.491-2.4909-2.491-2.4909 1.115-2.4909 2.491 1.1152 2.491 2.4909 2.491z" fill="#5E5E5E"/>
<path d="m38.114 109.17c0.9884 0 1.7896-0.802 1.7896-1.79s-0.8012-1.79-1.7896-1.79-1.7896 0.802-1.7896 1.79 0.8012 1.79 1.7896 1.79z" fill="#828282"/>
<path d="m84.498 111.08c-1.4027 0-3.2648-0.024-4.861-0.87-2.0072-1.065-3.0471-3.169-3.0471-6.216v-5.2234h0.9673v5.2234c0 2.709 0.8223 4.474 2.5152 5.369 1.451 0.774 3.2406 0.774 4.5707 0.774h0.1451v0.967h-0.1451c-0.0484-0.024-0.0967-0.024-0.1451-0.024z" fill="#69696B"/>
<path d="m85.828 110.59c0 0.556-0.4595 1.015-1.0157 1.015s-1.0157-0.459-1.0157-1.015c0-0.557 0.4595-1.016 1.0157-1.016 0.532-0.024 1.0157 0.435 1.0157 1.016z" fill="#69696B"/>
<path d="m79.274 111.05h-0.1451-0.1451v-0.967h0.1451c1.3059 0 3.1197 0 4.5707-0.774 1.6929-0.895 2.5151-2.66 2.5151-5.369v-5.2237h0.9674v5.2237c0 3.071-1.0158 5.151-3.0472 6.215-1.5961 0.871-3.4583 0.895-4.8609 0.895z" fill="#8D8D8E"/>
<path d="m77.968 110.57c0 0.557 0.4595 1.016 1.0157 1.016 0.5563 0 1.0157-0.459 1.0157-1.016 0-0.556-0.4594-1.015-1.0157-1.015-0.5562-0.025-1.0157 0.435-1.0157 1.015z" fill="#8D8D8E"/>
<path d="m86.699 99.347c-0.3386 0-0.6046-0.266-0.6046-0.6046v-1.5961c0-2.3216-1.8864-4.208-4.208-4.208-2.3217 0-4.208 1.8864-4.208 4.208v1.5961c0 0.3386-0.266 0.6046-0.6046 0.6046s-0.6046-0.266-0.6046-0.6046v-1.5961c0-2.9746 2.4184-5.4172 5.4172-5.4172s5.4172 2.4184 5.4172 5.4172v1.5961c0 0.3144-0.2661 0.6046-0.6046 0.6046z" fill="#3F3F3F"/>
<path d="m69.408 68.222h-18.815c2.9263 8.8513 0.2419 12.89 0.2419 12.89h18.331s-2.6844-4.0387 0.2418-12.89z" fill="#E2A379"/>
<path d="m81.354 42.37c0-22.346-9.5526-27.473-21.354-27.473-11.778 0-21.354 5.127-21.354 27.473 0 7.5695 1.4993 13.495 3.7484 18.065 4.9335 10.06 13.47 13.567 17.606 13.567 4.1355 0 12.672-3.5066 17.606-13.567 2.2491-4.5707 3.7485-10.496 3.7485-18.065z" fill="#F4B382"/>
<path d="m65.973 63.168c0 0.5804-2.6602 2.1281-5.9734 2.1281s-5.9734-1.5719-5.9734-2.1281c0-0.3628 1.8863-1.3543 3.1681-1.5478 0.7981-0.1209 2.8053 0.653 2.8053 0.653s1.9831-0.7497 2.757-0.653c1.3059 0.1693 3.2164 1.5478 3.2164 1.5478z" fill="#E5A173"/>
<path d="m65.973 63.168c0 0.5804-2.6602 2.7811-5.9734 2.7811s-5.9734-2.2007-5.9734-2.7811c0 0 2.4184 0.2902 5.9734 0.2902s5.9734-0.2902 5.9734-0.2902z" fill="#D89364"/>
<path d="m41.209 57.727c-2.0314 0.3386-3.4824 0.0242-4.6191-6.6989-1.1366-6.7231 0.4111-7.6179 2.4426-7.9564l2.1765 14.655z" fill="#F4B382"/>
<path d="m78.815 57.727c2.0314 0.3386 3.4582 0.0242 4.6191-6.6989 1.1608-6.7231-0.4112-7.6179-2.4426-7.9564l-2.1765 14.655z" fill="#F4B382"/>
<path d="m81.354 42.37c0-22.346-7.3277-28.077-21.354-28.077s-21.354 5.7316-21.354 28.077c0 0 3.9419-8.2467 6.844-12.842 2.902-4.5949 9.1898-4.4256 9.1898-4.4256h11.85s6.5296 0.0725 8.3434 4.4256l6.4812 12.842z" fill="#141414"/>
<path d="m40.024 34.051c-1.0157 2.636-1.3543 5.9008-1.3543 9.0689 0 0 2.1282-0.4595 2.1282 0.6288l0.6771 6.6747 0.9432-0.4595c-0.0484-5.5623 1.185-20.194 1.185-20.194l-3.5792 4.2806z" fill="#141414"/>
<path d="m80 34.051c1.0157 2.636 1.3543 5.9008 1.3543 9.0689 0 0-2.1282-0.4595-2.1282 0.6288l-0.6771 6.6747-0.9432-0.4595c0.0484-5.5623-1.185-19.758-1.185-19.758l3.5792 3.8452z" fill="#141414"/>
</g>
<defs>
<clipPath id="a">
<rect width="120" height="120" fill="#fff"/>
</clipPath>
</defs>
</svg>
