<?xml version="1.0" encoding="UTF-8"?>
<svg fill="none" viewBox="0 0 120 120" xmlns="http://www.w3.org/2000/svg">
<g clip-path="url(#a)">
<path d="m120 60c0-33.132-26.868-60-60-60s-60 26.868-60 60 26.868 60 60 60 60-26.868 60-60z" fill="#E5AA17"/>
<path d="m59.928 80.629c-18.67 0-33.64 5.3446-35.405 11.923-0.7981 2.9504-1.6929 8.5126-2.4426 13.906 10.326 8.44 23.555 13.519 37.944 13.519s27.594-5.079 37.944-13.519c-0.7739-5.393-1.6687-10.979-2.4426-13.906-1.8138-6.578-16.953-11.923-35.598-11.923z" fill="#E2A379"/>
<path d="m73.083 81.572c-4.0629-0.6046-8.5127-0.9431-13.156-0.9431-4.5949 0-8.9964 0.3144-13.011 0.919l13.083 21.934 13.084-21.91z" fill="#8E502E"/>
<path d="m24.522 92.576c-0.7981 2.9504-1.6929 8.5124-2.4426 13.905 10.326 8.44 23.555 13.519 37.944 13.519s27.594-5.079 37.944-13.519c-0.7739-5.393-1.6687-10.979-2.4426-13.905-1.3301-4.9577-10.181-9.1899-22.394-11.004l-13.132 21.91-13.083-21.934c-12.237 1.7896-21.064 6.0459-22.394 11.028z" fill="#9AE8F4"/>
<path d="m49.166 104.86h-15.236v2.539h15.236v-2.539z" fill="#D2FAFC"/>
<path d="m51.947 75.453c-8.4402 2.0799-14.462 7.3036-14.462 13.398v20.629h1.2092v-20.629c0-5.4898 5.4897-10.206 13.228-12.164 0.0484-0.3869 0.0484-0.798 0.0242-1.2334z" fill="#3F3F3F"/>
<path d="m68.053 75.453c0 0.4354 0 0.8465 0.0242 1.2334 7.763 1.9589 13.228 6.6747 13.228 12.164v3.7968h1.2092v-3.7726c0-6.1185-6.0217-11.342-14.462-13.422z" fill="#3F3F3F"/>
<path d="m38.114 111.42c2.2306 0 4.0387-1.808 4.0387-4.039 0-2.23-1.8081-4.039-4.0387-4.039-2.2305 0-4.0386 1.809-4.0386 4.039 0 2.231 1.8081 4.039 4.0386 4.039z" fill="#5E5E5E"/>
<path d="m38.114 110.91c1.95 0 3.5309-1.581 3.5309-3.531s-1.5809-3.531-3.5309-3.531-3.5308 1.581-3.5308 3.531 1.5808 3.531 3.5308 3.531z" fill="#828282"/>
<path d="m38.114 109.87c1.3757 0 2.4909-1.115 2.4909-2.491s-1.1152-2.491-2.4909-2.491-2.4909 1.115-2.4909 2.491 1.1152 2.491 2.4909 2.491z" fill="#5E5E5E"/>
<path d="m38.114 109.17c0.9884 0 1.7896-0.802 1.7896-1.79s-0.8012-1.79-1.7896-1.79-1.7896 0.802-1.7896 1.79 0.8012 1.79 1.7896 1.79z" fill="#828282"/>
<path d="m84.498 111.08c-1.4027 0-3.2648-0.024-4.861-0.87-2.0072-1.065-3.0471-3.169-3.0471-6.216v-5.2234h0.9673v5.2234c0 2.709 0.8223 4.474 2.5152 5.369 1.451 0.774 3.2406 0.774 4.5707 0.774h0.1451v0.967h-0.1451c-0.0484-0.024-0.0967-0.024-0.1451-0.024z" fill="#69696B"/>
<path d="m85.828 110.59c0 0.556-0.4595 1.015-1.0157 1.015s-1.0157-0.459-1.0157-1.015c0-0.557 0.4595-1.016 1.0157-1.016 0.532-0.024 1.0157 0.435 1.0157 1.016z" fill="#69696B"/>
<path d="m79.274 111.05h-0.1451-0.1451v-0.967h0.1451c1.3059 0 3.1197 0 4.5707-0.774 1.6929-0.895 2.5151-2.66 2.5151-5.369v-5.2237h0.9674v5.2237c0 3.071-1.0158 5.151-3.0472 6.215-1.5961 0.871-3.4583 0.895-4.8609 0.895z" fill="#8D8D8E"/>
<path d="m77.968 110.57c0 0.557 0.4595 1.016 1.0157 1.016 0.5563 0 1.0157-0.459 1.0157-1.016 0-0.556-0.4594-1.015-1.0157-1.015-0.5562-0.025-1.0157 0.435-1.0157 1.015z" fill="#8D8D8E"/>
<path d="m86.699 99.347c-0.3386 0-0.6046-0.266-0.6046-0.6046v-1.5961c0-2.3216-1.8864-4.208-4.208-4.208-2.3217 0-4.208 1.8864-4.208 4.208v1.5961c0 0.3386-0.266 0.6046-0.6046 0.6046s-0.6046-0.266-0.6046-0.6046v-1.5961c0-2.9746 2.4184-5.4172 5.4172-5.4172s5.4172 2.4184 5.4172 5.4172v1.5961c0 0.3144-0.2661 0.6046-0.6046 0.6046z" fill="#3F3F3F"/>
<path d="m69.408 68.222h-18.815c2.9263 8.8513 0.2419 12.89 0.2419 12.89l6.5054 3.1197h5.3204l6.5055-3.1197s-2.6844-4.0387 0.2418-12.89z" fill="#8E502E"/>
<path d="m79.299 42.37c0-22.346-8.6336-27.473-19.299-27.473-10.641 0-19.299 5.127-19.299 27.473 0 7.5695 1.3543 13.495 3.3857 18.065 4.4498 10.06 12.164 13.567 15.913 13.567s11.439-3.5066 15.913-13.567c2.0314-4.5707 3.3857-10.496 3.3857-18.065z" fill="#9B5C32"/>
<path d="m66.457 63.797s-3.4341 2.3216-6.4571 2.3216c-3.0229 0-6.457-2.3216-6.457-2.3216 0-0.3386 2.7327-1.2818 3.8936-1.4511 0.7255-0.1209 2.5634 0.6046 2.5634 0.6046s1.8138-0.7013 2.5152-0.6046c1.185 0.1693 3.9419 1.4511 3.9419 1.4511z" fill="#8C4B2F"/>
<path d="m66.457 63.797s-3.4341 3.2649-6.4571 3.2649c-3.0229 0-6.457-3.2649-6.457-3.2649s1.5719 0.3628 4.74 0.1693c0.532-0.0241 1.2334 0.387 1.6929 0.387 0.4111 0 1.0157-0.4353 1.4752-0.4112 3.3373 0.1935 5.006-0.1451 5.006-0.1451z" fill="#823F27"/>
<path d="m60 14.897c-11.778 0-20 6.1911-20 28.537 0 0 20-11.1 20-19.226v-9.3108z" fill="#141414"/>
<path d="m59.976 14.897c11.778 0 20.024 6.1911 20.024 28.537 0 0-20-11.1-20-19.226l-0.0242-9.3108z" fill="#141414"/>
<path d="m78.138 12.745h-36.276v15.236h36.276v-15.236z" fill="#E4F0F2"/>
<path d="m60 26.094c3.112 0 5.6348-2.5228 5.6348-5.6348s-2.5228-5.6348-5.6348-5.6348c-3.1121 0-5.6349 2.5228-5.6349 5.6348s2.5228 5.6348 5.6349 5.6348z" fill="#D61E1E"/>
<path d="m63.894 19.42h-7.763v2.0556h7.763v-2.0556z" fill="#E6E7E8"/>
<path d="m61.016 16.59h-2.0556v7.763h2.0556v-7.763z" fill="#E6E7E8"/>
<path d="m50.834 81.112s-3.5792 8.8755 9.0931 8.8755 9.2382-8.8755 9.2382-8.8755l-9.2382-4.4498-9.0931 4.4498z" fill="#8E502E"/>
<path d="m38.863 50.23c1.0399 6.0943 2.3216 6.3603 4.1838 6.0459l-1.9589-13.253c-1.8622 0.3386-3.2649 1.1366-2.2249 7.2068z" fill="#9B5C32"/>
<path d="m78.96 43.047-1.9589 13.253c1.838 0.3144 3.1439 0.0242 4.1838-6.046 1.0157-6.0943-0.3869-6.8923-2.2249-7.2067z" fill="#9B5C32"/>
<path d="m42.273 44.28c-0.0968-0.6529-0.121-1.2575-0.0968-1.717 0.0242-0.7013 0.1209-1.1367 0.1209-1.1367l-2.2732 0.8465v1.0399s0.2418-0.0726 0.6771-0.2177c-0.0242 0-0.0484 0.0242-0.0725 0.0242 0.3144 0.5321 0.7013 1.3543 1.0882 2.5393-0.0241 0 0.8707 0.653 0.5563-1.3785z" fill="#141414"/>
<path d="m77.848 42.564c0.0242 0.4837 0 1.0641-0.0968 1.717-0.3143 2.0315 0.5563 1.3785 0.5563 1.3785 0.3627-1.2092 0.7739-2.0072 1.0641-2.5393 0.3869 0.1451 0.6046 0.1935 0.6046 0.1935v-1.0399l-2.2491-0.8465s0.0967 0.4354 0.1209 1.1367z" fill="#141414"/>
</g>
<defs>
<clipPath id="a">
<rect width="120" height="120" fill="#fff"/>
</clipPath>
</defs>
</svg>
